<svg width="160" height="160" viewBox="0 0 160 160" fill="none" xmlns="http://www.w3.org/2000/svg">
<path d="M89.7635 35.2891C89.5248 35.3645 88.6027 36.3228 87.2509 37.8949C85.4161 40.0299 84.0343 41.3728 81.7724 43.2215C77.0583 47.0716 71.9707 49.7993 66.1501 51.5988C65.6121 51.7649 64.903 52.0129 64.577 52.1527C60.259 53.9669 56.7787 58.5041 54.3414 65.5062C52.6289 70.4077 51.4488 76.9434 51.3384 82.1161C51.3116 83.2283 51.361 84.3621 51.4492 84.7653C51.5241 85.1184 51.716 85.3725 51.8756 85.3494C52.3311 85.2823 52.6834 84.6533 53.8962 81.7877C56.2687 76.1817 58.1919 73.1496 60.5767 71.23C61.8712 70.1884 62.9734 69.6919 64.7775 69.3387C65.9779 69.1051 66.8597 69.0329 69.9039 68.9211C72.6297 68.8218 74.1848 68.5962 75.6362 68.1067C76.51 67.8095 77.4198 67.3568 77.9073 66.9776C78.2872 66.6791 78.4635 66.6592 78.3412 66.9334C78.2838 67.0509 76.9106 71.5376 73.9141 81.3835C73.2617 83.5252 71.936 87.8858 70.9659 91.0695C69.9957 94.2532 68.925 97.7762 68.5797 98.9009C68.24 100.027 67.7339 101.682 67.462 102.577C66.8197 104.667 66.6516 105.501 66.6647 106.526C66.6775 108.025 67.0908 109.474 67.9471 111.008C68.7138 112.383 69.5249 113.442 70.7201 114.622C73.0702 116.956 76.0325 118.623 80.0419 119.87C81.0181 120.169 84.0743 120.763 84.9416 120.824C87.4276 120.983 89.3234 120.837 91.2989 120.341C94.4833 119.539 96.8605 118.071 98.2272 116.069C98.9043 115.069 99.2979 114.11 99.543 112.851C99.9608 110.704 99.6027 108.765 98.3756 106.596C96.4519 103.195 92.9231 100.334 88.5433 98.6283C85.4673 97.4269 82.1565 96.7825 79.2697 96.8234C76.8794 96.8525 74.4028 97.4134 72.49 98.3549C72.2738 98.4618 72.0861 98.5404 72.072 98.5241C72.0648 98.5024 73.1206 94.9968 74.4284 90.7275C75.7307 86.4572 78.6242 76.9638 80.8559 69.6305C83.0877 62.2972 85.772 53.4945 86.8181 50.0682C89.8359 40.1723 90.3411 38.4625 90.5113 37.5881C90.8211 35.9961 90.5084 35.0345 89.7635 35.2891Z" fill="#37595E"/>
<circle cx="80" cy="80" r="75" stroke="#37595E" stroke-width="10"/>
</svg>
