<svg width="340" height="131" viewBox="0 0 340 131" fill="none" xmlns="http://www.w3.org/2000/svg">
<g filter="url(#filter0_d)">
<mask id="path-1-outside-1" maskUnits="userSpaceOnUse" x="4" y="0" width="332" height="123" fill="black">
<rect fill="white" x="4" width="332" height="123"/>
<path d="M13 61.5C13 32.505 36.5051 9 65.5 9H274.5C303.495 9 327 32.505 327 61.5C327 90.4949 303.495 114 274.5 114H65.5C36.5051 114 13 90.4949 13 61.5Z"/>
</mask>
<path d="M13 61.5C13 32.505 36.5051 9 65.5 9H274.5C303.495 9 327 32.505 327 61.5C327 90.4949 303.495 114 274.5 114H65.5C36.5051 114 13 90.4949 13 61.5Z" fill="#010F14"/>
<path d="M13 61.5H22H13ZM327 61.5H336H327ZM327 61.5H336H327ZM13 61.5H22H13ZM65.5 18H274.5V0H65.5V18ZM274.5 105H65.5V123H274.5V105ZM65.5 105C41.4756 105 22 85.5244 22 61.5H4C4 95.4655 31.5345 123 65.5 123V105ZM318 61.5C318 85.5244 298.524 105 274.5 105V123C308.466 123 336 95.4655 336 61.5H318ZM274.5 18C298.524 18 318 37.4756 318 61.5H336C336 27.5345 308.466 0 274.5 0V18ZM65.5 0C31.5345 0 4 27.5345 4 61.5H22C22 37.4756 41.4756 18 65.5 18V0Z" fill="#37595E" mask="url(#path-1-outside-1)"/>
</g>
<path d="M148.152 76.7802C146.184 76.7802 144.408 76.3842 142.824 75.5922C141.264 74.8002 139.992 73.6482 139.008 72.1362L142.356 68.9682C143.148 69.9042 144.096 70.6722 145.2 71.2722C146.328 71.8722 147.372 72.1722 148.332 72.1722C149.34 72.1722 150.144 71.9562 150.744 71.5242C151.344 71.0922 151.644 70.5282 151.644 69.8322C151.644 69.2802 151.548 68.8482 151.356 68.5362C151.188 68.2242 150.816 67.9002 150.24 67.5642C149.688 67.2042 148.728 66.6762 147.36 65.9802C145.536 65.0682 144.108 64.2282 143.076 63.4602C142.044 62.6922 141.264 61.8522 140.736 60.9402C140.232 60.0042 139.98 58.9002 139.98 57.6282C139.98 56.3082 140.34 55.1322 141.06 54.1002C141.78 53.0682 142.788 52.2762 144.084 51.7242C145.404 51.1482 146.916 50.8602 148.62 50.8602C150.516 50.8602 152.172 51.2082 153.588 51.9042C155.028 52.6002 156.084 53.5722 156.756 54.8202L153.12 57.5562C151.944 56.1642 150.54 55.4682 148.908 55.4682C147.9 55.4682 147.12 55.6602 146.568 56.0442C146.04 56.4042 145.776 56.9202 145.776 57.5922C145.776 58.0242 145.932 58.4202 146.244 58.7802C146.556 59.1402 147.096 59.5482 147.864 60.0042C148.656 60.4362 149.832 61.0122 151.392 61.7322C152.904 62.4282 154.092 63.1362 154.956 63.8562C155.82 64.5522 156.432 65.3562 156.792 66.2682C157.176 67.1562 157.368 68.2362 157.368 69.5082C157.368 70.9722 156.984 72.2562 156.216 73.3602C155.472 74.4402 154.404 75.2802 153.012 75.8802C151.62 76.4802 150 76.7802 148.152 76.7802ZM165.346 76.7802C164.17 76.7802 163.114 76.5282 162.178 76.0242C161.242 75.5202 160.51 74.8362 159.982 73.9722C159.454 73.0842 159.19 72.0882 159.19 70.9842C159.19 69.1362 159.934 67.7202 161.422 66.7362C162.91 65.7522 165.046 65.2602 167.83 65.2602H170.35V64.5402C170.35 63.7242 170.086 63.0882 169.558 62.6322C169.03 62.1762 168.31 61.9482 167.398 61.9482C166.318 61.9482 165.274 62.1282 164.266 62.4882C163.282 62.8482 162.466 63.3402 161.818 63.9642L159.622 61.0482C160.654 60.1362 161.866 59.4162 163.258 58.8882C164.674 58.3362 166.102 58.0602 167.542 58.0602C169.99 58.0602 171.922 58.6362 173.338 59.7882C174.754 60.9162 175.462 62.4642 175.462 64.4322V72.5322C175.462 73.1082 175.51 73.7922 175.606 74.5842C175.702 75.3762 175.81 75.9882 175.93 76.4202H171.358C171.214 76.0842 171.106 75.7842 171.034 75.5202C170.962 75.2562 170.902 74.8842 170.854 74.4042H170.782C169.438 75.9882 167.626 76.7802 165.346 76.7802ZM166.714 73.0002C167.77 73.0002 168.634 72.7362 169.306 72.2082C170.002 71.6562 170.35 70.9602 170.35 70.1202V68.6082H167.686C166.558 68.6082 165.694 68.8122 165.094 69.2202C164.494 69.6282 164.194 70.2162 164.194 70.9842C164.194 71.6322 164.41 72.1362 164.842 72.4962C165.274 72.8322 165.898 73.0002 166.714 73.0002ZM182.524 56.6922C181.564 56.6922 180.784 56.4282 180.184 55.9002C179.608 55.3722 179.32 54.6642 179.32 53.7762C179.32 52.8882 179.608 52.1802 180.184 51.6522C180.784 51.1242 181.564 50.8602 182.524 50.8602C183.484 50.8602 184.252 51.1242 184.828 51.6522C185.428 52.1802 185.728 52.8882 185.728 53.7762C185.728 54.6642 185.428 55.3722 184.828 55.9002C184.252 56.4282 183.484 56.6922 182.524 56.6922ZM179.968 58.4202H185.08V76.4202H179.968V58.4202ZM189.409 62.8122C189.409 60.7722 189.373 59.3082 189.301 58.4202H194.161C194.257 59.3562 194.305 60.4122 194.305 61.5882V61.9482H194.449C194.905 60.7722 195.721 59.8362 196.897 59.1402C198.097 58.4202 199.465 58.0602 201.001 58.0602C201.313 58.0602 201.685 58.0962 202.117 58.1682V62.1642C202.069 62.1402 201.829 62.1282 201.397 62.1282C200.173 62.1282 199.033 62.4402 197.977 63.0642C196.921 63.6882 196.081 64.5162 195.457 65.5482C194.833 66.5802 194.521 67.6962 194.521 68.8962V76.4202H189.409V62.8122Z" fill="white"/>
<path d="M142.824 75.5922L142.371 76.4839L142.376 76.4866L142.824 75.5922ZM139.008 72.1362L138.32 71.4098L137.715 71.9829L138.17 72.6817L139.008 72.1362ZM142.356 68.9682L143.119 68.3223L142.436 67.5153L141.668 68.2418L142.356 68.9682ZM145.2 71.2722L144.722 72.1509L144.73 72.1551L145.2 71.2722ZM150.744 71.5242L151.328 72.3357L150.744 71.5242ZM151.356 68.5362L150.475 69.0103L150.489 69.0357L150.504 69.0603L151.356 68.5362ZM150.24 67.5642L149.693 68.4018L149.714 68.4154L149.736 68.428L150.24 67.5642ZM147.36 65.9802L147.813 65.0889L147.807 65.0858L147.36 65.9802ZM143.076 63.4602L143.673 62.658L143.076 63.4602ZM140.736 60.9402L139.855 61.4143L139.863 61.4279L139.87 61.4412L140.736 60.9402ZM141.06 54.1002L141.88 54.6724V54.6724L141.06 54.1002ZM144.084 51.7242L144.476 52.6443L144.484 52.6407L144.084 51.7242ZM153.588 51.9042L153.147 52.8017L153.153 52.8045L153.588 51.9042ZM156.756 54.8202L157.357 55.6192L158.044 55.1026L157.636 54.3461L156.756 54.8202ZM153.12 57.5562L152.356 58.2015L152.966 58.9235L153.721 58.3552L153.12 57.5562ZM146.568 56.0442L147.131 56.8705L147.139 56.8651L146.568 56.0442ZM147.864 60.0042L147.353 60.864L147.369 60.8734L147.385 60.8821L147.864 60.0042ZM151.392 61.7322L150.973 62.6402L150.974 62.6406L151.392 61.7322ZM154.956 63.8562L154.315 64.6244L154.322 64.6297L154.328 64.635L154.956 63.8562ZM156.792 66.2682L155.862 66.6354L155.867 66.6503L155.874 66.6651L156.792 66.2682ZM156.216 73.3602L155.395 72.7891L155.392 72.7929L156.216 73.3602ZM153.012 75.8802L153.408 76.7985L153.012 75.8802ZM148.152 75.7802C146.321 75.7802 144.701 75.4129 143.271 74.6978L142.376 76.4866C144.114 77.3555 146.046 77.7802 148.152 77.7802V75.7802ZM143.276 74.7005C141.878 73.9906 140.737 72.9603 139.846 71.5907L138.17 72.6817C139.246 74.3361 140.649 75.6098 142.371 76.4839L143.276 74.7005ZM139.695 72.8626L143.043 69.6946L141.668 68.2418L138.32 71.4098L139.695 72.8626ZM141.592 69.6141C142.466 70.6471 143.512 71.4931 144.722 72.1508L145.677 70.3936C144.679 69.8513 143.829 69.1613 143.119 68.3223L141.592 69.6141ZM144.73 72.1551C145.957 72.8075 147.163 73.1722 148.332 73.1722V71.1722C147.581 71.1722 146.699 70.9369 145.669 70.3893L144.73 72.1551ZM148.332 73.1722C149.475 73.1722 150.506 72.9277 151.328 72.3357L150.159 70.7127C149.782 70.9847 149.205 71.1722 148.332 71.1722V73.1722ZM151.328 72.3357C152.17 71.7295 152.644 70.8726 152.644 69.8322H150.644C150.644 70.1838 150.517 70.4548 150.159 70.7127L151.328 72.3357ZM152.644 69.8322C152.644 69.1823 152.534 68.5423 152.207 68.0121L150.504 69.0603C150.562 69.1541 150.644 69.3781 150.644 69.8322H152.644ZM152.236 68.0621C151.933 67.4993 151.36 67.0601 150.744 66.7004L149.736 68.428C150.271 68.7403 150.442 68.9491 150.475 69.0103L152.236 68.0621ZM150.786 66.7266C150.185 66.3345 149.182 65.7856 147.813 65.0889L146.906 66.8715C148.273 67.5668 149.191 68.0739 149.693 68.4018L150.786 66.7266ZM147.807 65.0858C146.009 64.1867 144.639 63.3767 143.673 62.658L142.479 64.2624C143.577 65.0797 145.063 65.9497 146.912 66.8746L147.807 65.0858ZM143.673 62.658C142.726 61.9536 142.048 61.2107 141.601 60.4392L139.87 61.4412C140.48 62.4937 141.361 63.4308 142.479 64.2624L143.673 62.658ZM141.616 60.4661C141.205 59.7019 140.98 58.7671 140.98 57.6282H138.98C138.98 59.0333 139.259 60.3065 139.855 61.4143L141.616 60.4661ZM140.98 57.6282C140.98 56.5022 141.283 55.528 141.88 54.6724L140.24 53.528C139.397 54.7364 138.98 56.1142 138.98 57.6282H140.98ZM141.88 54.6724C142.48 53.8121 143.331 53.1318 144.476 52.6442L143.692 50.8042C142.244 51.4206 141.079 52.3243 140.24 53.528L141.88 54.6724ZM144.484 52.6407C145.657 52.1289 147.028 51.8602 148.62 51.8602V49.8602C146.803 49.8602 145.151 50.1675 143.684 50.8077L144.484 52.6407ZM148.62 51.8602C150.393 51.8602 151.893 52.1854 153.147 52.8016L154.029 51.0067C152.451 50.231 150.638 49.8602 148.62 49.8602V51.8602ZM153.153 52.8045C154.428 53.4212 155.316 54.2551 155.875 55.2943L157.636 54.3461C156.852 52.8893 155.627 51.7792 154.023 51.0038L153.153 52.8045ZM156.154 54.0211L152.518 56.7571L153.721 58.3552L157.357 55.6192L156.154 54.0211ZM153.884 56.9108C152.542 55.3234 150.871 54.4682 148.908 54.4682V56.4682C150.209 56.4682 151.345 57.005 152.356 58.2015L153.884 56.9108ZM148.908 54.4682C147.792 54.4682 146.781 54.6778 145.997 55.2233L147.139 56.8651C147.459 56.6426 148.008 56.4682 148.908 56.4682V54.4682ZM146.004 55.218C145.187 55.7754 144.776 56.6098 144.776 57.5922H146.776C146.776 57.2306 146.893 57.033 147.131 56.8704L146.004 55.218ZM144.776 57.5922C144.776 58.2901 145.036 58.9134 145.488 59.4351L146.999 58.1253C146.828 57.927 146.776 57.7583 146.776 57.5922H144.776ZM145.488 59.4351C145.907 59.9187 146.559 60.3924 147.353 60.864L148.374 59.1443C147.633 58.704 147.204 58.3617 146.999 58.1253L145.488 59.4351ZM147.385 60.8821C148.207 61.3304 149.407 61.9175 150.973 62.6402L151.811 60.8242C150.256 60.1069 149.105 59.542 148.343 59.1263L147.385 60.8821ZM150.974 62.6406C152.44 63.3156 153.543 63.9806 154.315 64.6244L155.596 63.088C154.64 62.2918 153.367 61.5408 151.81 60.8238L150.974 62.6406ZM154.328 64.635C155.076 65.2368 155.573 65.9047 155.862 66.6354L157.722 65.901C157.29 64.8077 156.564 63.8676 155.583 63.0774L154.328 64.635ZM155.874 66.6651C156.189 67.395 156.368 68.3318 156.368 69.5082H158.368C158.368 68.1406 158.162 66.9174 157.71 65.8713L155.874 66.6651ZM156.368 69.5082C156.368 70.787 156.036 71.8677 155.395 72.7891L157.037 73.9313C157.932 72.6447 158.368 71.1574 158.368 69.5082H156.368ZM155.392 72.7929C154.771 73.6951 153.863 74.4245 152.616 74.9619L153.408 76.7985C154.945 76.1359 156.173 75.1853 157.039 73.9275L155.392 72.7929ZM152.616 74.9619C151.373 75.4976 149.893 75.7802 148.152 75.7802V77.7802C150.107 77.7802 151.866 77.4628 153.408 76.7985L152.616 74.9619ZM162.178 76.0242L162.652 75.1437V75.1437L162.178 76.0242ZM159.982 73.9722L159.122 74.4833L159.129 74.4936L159.982 73.9722ZM161.422 66.7362L160.87 65.9021H160.87L161.422 66.7362ZM170.35 65.2602V66.2602H171.35V65.2602H170.35ZM169.558 62.6322L170.212 61.8754L169.558 62.6322ZM164.266 62.4882L163.93 61.5464L163.922 61.5491L164.266 62.4882ZM161.818 63.9642L161.019 64.5658L161.698 65.4677L162.512 64.6845L161.818 63.9642ZM159.622 61.0482L158.96 60.2989L158.267 60.9112L158.823 61.6498L159.622 61.0482ZM163.258 58.8882L163.613 59.8232L163.621 59.8199L163.258 58.8882ZM173.338 59.7882L172.707 60.5639L172.715 60.5704L173.338 59.7882ZM175.606 74.5842L174.613 74.7045V74.7045L175.606 74.5842ZM175.93 76.4202V77.4202H177.246L176.893 76.1526L175.93 76.4202ZM171.358 76.4202L170.439 76.8141L170.699 77.4202H171.358V76.4202ZM171.034 75.5202L170.069 75.7833V75.7833L171.034 75.5202ZM170.854 74.4042L171.849 74.3047L171.759 73.4042H170.854V74.4042ZM170.782 74.4042V73.4042H170.319L170.019 73.7572L170.782 74.4042ZM169.306 72.2082L169.924 72.9945L169.927 72.9917L169.306 72.2082ZM170.35 68.6082H171.35V67.6082H170.35V68.6082ZM165.094 69.2202L165.656 70.0471L165.094 69.2202ZM164.842 72.4962L164.202 73.2644L164.215 73.2752L164.228 73.2855L164.842 72.4962ZM165.346 75.7802C164.317 75.7802 163.427 75.5612 162.652 75.1437L161.704 76.9047C162.801 77.4952 164.022 77.7802 165.346 77.7802V75.7802ZM162.652 75.1437C161.864 74.7193 161.266 74.1559 160.835 73.4507L159.129 74.4936C159.754 75.5165 160.62 76.3211 161.704 76.9047L162.652 75.1437ZM160.841 73.4611C160.412 72.7384 160.19 71.9211 160.19 70.9842H158.19C158.19 72.2553 158.496 73.43 159.122 74.4833L160.841 73.4611ZM160.19 70.9842C160.19 69.4574 160.777 68.3613 161.973 67.5703L160.87 65.9021C159.09 67.0791 158.19 68.815 158.19 70.9842H160.19ZM161.973 67.5703C163.23 66.7394 165.141 66.2602 167.83 66.2602V64.2602C164.951 64.2602 162.59 64.7649 160.87 65.9021L161.973 67.5703ZM167.83 66.2602H170.35V64.2602H167.83V66.2602ZM171.35 65.2602V64.5402H169.35V65.2602H171.35ZM171.35 64.5402C171.35 63.4881 170.998 62.5543 170.212 61.8754L168.904 63.389C169.174 63.6221 169.35 63.9603 169.35 64.5402H171.35ZM170.212 61.8754C169.452 61.2196 168.475 60.9482 167.398 60.9482V62.9482C168.145 62.9482 168.608 63.1328 168.904 63.389L170.212 61.8754ZM167.398 60.9482C166.204 60.9482 165.046 61.1475 163.93 61.5465L164.602 63.4299C165.501 63.1088 166.431 62.9482 167.398 62.9482V60.9482ZM163.922 61.5491C162.829 61.9491 161.888 62.5088 161.124 63.2439L162.512 64.6845C163.044 64.1716 163.735 63.7473 164.609 63.4273L163.922 61.5491ZM162.617 63.3626L160.421 60.4466L158.823 61.6498L161.019 64.5658L162.617 63.3626ZM160.284 61.7975C161.219 60.9717 162.324 60.3119 163.613 59.8232L162.903 57.9532C161.408 58.5205 160.089 59.3007 158.96 60.2989L160.284 61.7975ZM163.621 59.8199C164.928 59.3105 166.233 59.0602 167.542 59.0602V57.0602C165.971 57.0602 164.42 57.3619 162.895 57.9565L163.621 59.8199ZM167.542 59.0602C169.839 59.0602 171.522 59.5998 172.707 60.5639L173.969 59.0125C172.322 57.6726 170.141 57.0602 167.542 57.0602V59.0602ZM172.715 60.5704C173.87 61.4905 174.462 62.7383 174.462 64.4322H176.462C176.462 62.1901 175.638 60.3419 173.961 59.006L172.715 60.5704ZM174.462 64.4322V72.5322H176.462V64.4322H174.462ZM174.462 72.5322C174.462 73.1604 174.514 73.8866 174.613 74.7045L176.599 74.4639C176.506 73.6978 176.462 73.056 176.462 72.5322H174.462ZM174.613 74.7045C174.711 75.5143 174.826 76.1842 174.966 76.6878L176.893 76.1526C176.793 75.7922 176.692 75.2381 176.599 74.4639L174.613 74.7045ZM175.93 75.4202H171.358V77.4202H175.93V75.4202ZM172.277 76.0263C172.146 75.7196 172.055 75.4645 171.999 75.2571L170.069 75.7833C170.157 76.1039 170.282 76.4488 170.439 76.8141L172.277 76.0263ZM171.999 75.2571C171.948 75.0723 171.895 74.7643 171.849 74.3047L169.859 74.5037C169.909 75.0041 169.976 75.4401 170.069 75.7833L171.999 75.2571ZM170.854 73.4042H170.782V75.4042H170.854V73.4042ZM170.019 73.7572C168.885 75.0937 167.365 75.7802 165.346 75.7802V77.7802C167.887 77.7802 169.99 76.8827 171.544 75.0512L170.019 73.7572ZM166.714 74.0002C167.94 74.0002 169.037 73.691 169.924 72.9945L168.688 71.4219C168.231 71.7814 167.6 72.0002 166.714 72.0002V74.0002ZM169.927 72.9917C170.847 72.2626 171.35 71.2852 171.35 70.1202H169.35C169.35 70.6352 169.157 71.0498 168.685 71.4247L169.927 72.9917ZM171.35 70.1202V68.6082H169.35V70.1202H171.35ZM170.35 67.6082H167.686V69.6082H170.35V67.6082ZM167.686 67.6082C166.46 67.6082 165.366 67.8259 164.532 68.3933L165.656 70.0471C166.022 69.7985 166.655 69.6082 167.686 69.6082V67.6082ZM164.532 68.3933C163.639 69 163.194 69.9081 163.194 70.9842H165.194C165.194 70.5243 165.348 70.2564 165.656 70.0471L164.532 68.3933ZM163.194 70.9842C163.194 71.8785 163.506 72.6843 164.202 73.2644L165.482 71.728C165.314 71.5881 165.194 71.3859 165.194 70.9842H163.194ZM164.228 73.2855C164.903 73.8107 165.78 74.0002 166.714 74.0002V72.0002C166.016 72.0002 165.645 71.8537 165.456 71.7068L164.228 73.2855ZM180.184 55.9002L179.509 56.6373L179.516 56.6442L179.524 56.6509L180.184 55.9002ZM180.184 51.6522L179.524 50.9015L179.516 50.9082L179.509 50.915L180.184 51.6522ZM184.828 51.6522L184.153 52.3893L184.16 52.3962L184.168 52.4029L184.828 51.6522ZM184.828 55.9002L184.168 55.1495L184.16 55.1562L184.153 55.163L184.828 55.9002ZM179.968 58.4202V57.4202H178.968V58.4202H179.968ZM185.08 58.4202H186.08V57.4202H185.08V58.4202ZM185.08 76.4202V77.4202H186.08V76.4202H185.08ZM179.968 76.4202H178.968V77.4202H179.968V76.4202ZM182.524 55.6922C181.756 55.6922 181.227 55.4859 180.845 55.1495L179.524 56.6509C180.341 57.3705 181.373 57.6922 182.524 57.6922V55.6922ZM180.86 55.163C180.52 54.8512 180.32 54.4261 180.32 53.7762H178.32C178.32 54.9023 178.697 55.8932 179.509 56.6373L180.86 55.163ZM180.32 53.7762C180.32 53.1263 180.52 52.7012 180.86 52.3893L179.509 50.915C178.697 51.6592 178.32 52.6501 178.32 53.7762H180.32ZM180.845 52.4029C181.227 52.0665 181.756 51.8602 182.524 51.8602V49.8602C181.373 49.8602 180.341 50.1819 179.524 50.9015L180.845 52.4029ZM182.524 51.8602C183.294 51.8602 183.801 52.067 184.153 52.3893L185.504 50.915C184.704 50.1814 183.675 49.8602 182.524 49.8602V51.8602ZM184.168 52.4029C184.527 52.7187 184.728 53.1399 184.728 53.7762H186.728C186.728 52.6365 186.33 51.6417 185.489 50.9015L184.168 52.4029ZM184.728 53.7762C184.728 54.4125 184.527 54.8337 184.168 55.1495L185.489 56.6509C186.33 55.9107 186.728 54.9159 186.728 53.7762H184.728ZM184.153 55.163C183.801 55.4854 183.294 55.6922 182.524 55.6922V57.6922C183.675 57.6922 184.704 57.371 185.504 56.6373L184.153 55.163ZM179.968 59.4202H185.08V57.4202H179.968V59.4202ZM184.08 58.4202V76.4202H186.08V58.4202H184.08ZM185.08 75.4202H179.968V77.4202H185.08V75.4202ZM180.968 76.4202V58.4202H178.968V76.4202H180.968ZM189.301 58.4202V57.4202H188.216L188.304 58.501L189.301 58.4202ZM194.161 58.4202L195.155 58.3182L195.063 57.4202H194.161V58.4202ZM194.305 61.9482H193.305V62.9482H194.305V61.9482ZM194.449 61.9482V62.9482H195.133L195.381 62.3097L194.449 61.9482ZM196.897 59.1402L197.406 60.0008L197.411 59.9977L196.897 59.1402ZM202.117 58.1682H203.117V57.3211L202.281 57.1818L202.117 58.1682ZM202.117 62.1642L201.669 63.0586L203.117 63.7822V62.1642H202.117ZM194.521 76.4202V77.4202H195.521V76.4202H194.521ZM189.409 76.4202H188.409V77.4202H189.409V76.4202ZM190.409 62.8122C190.409 60.7705 190.373 59.2712 190.297 58.3394L188.304 58.501C188.372 59.3452 188.409 60.7738 188.409 62.8122H190.409ZM189.301 59.4202H194.161V57.4202H189.301V59.4202ZM193.166 58.5222C193.258 59.4172 193.305 60.4383 193.305 61.5882H195.305C195.305 60.3861 195.256 59.2952 195.155 58.3182L193.166 58.5222ZM193.305 61.5882V61.9482H195.305V61.5882H193.305ZM194.305 62.9482H194.449V60.9482H194.305V62.9482ZM195.381 62.3097C195.749 61.3607 196.406 60.5927 197.406 60.0008L196.387 58.2796C195.035 59.0797 194.06 60.1837 193.516 61.5867L195.381 62.3097ZM197.411 59.9977C198.441 59.3799 199.628 59.0602 201.001 59.0602V57.0602C199.302 57.0602 197.752 57.4605 196.382 58.2827L197.411 59.9977ZM201.001 59.0602C201.24 59.0602 201.555 59.0883 201.952 59.1546L202.281 57.1818C201.814 57.1041 201.385 57.0602 201.001 57.0602V59.0602ZM201.117 58.1682V62.1642H203.117V58.1682H201.117ZM202.564 61.2698C202.377 61.1765 202.187 61.1585 202.169 61.1562C202.097 61.1473 202.021 61.142 201.95 61.1384C201.806 61.1312 201.618 61.1282 201.397 61.1282V63.1282C201.607 63.1282 201.755 63.1312 201.851 63.1359C201.873 63.1371 201.891 63.1382 201.904 63.1392C201.917 63.1403 201.922 63.1409 201.92 63.1407C201.92 63.1406 201.916 63.1401 201.909 63.139C201.903 63.138 201.891 63.136 201.876 63.1327C201.861 63.1295 201.837 63.1238 201.807 63.1143C201.779 63.1056 201.729 63.0885 201.669 63.0586L202.564 61.2698ZM201.397 61.1282C199.993 61.1282 198.678 61.4884 197.468 62.2033L198.485 63.9251C199.388 63.392 200.352 63.1282 201.397 63.1282V61.1282ZM197.468 62.2033C196.272 62.9098 195.312 63.8549 194.601 65.0308L196.312 66.0656C196.849 65.1775 197.569 64.4665 198.485 63.9251L197.468 62.2033ZM194.601 65.0308C193.883 66.218 193.521 67.5128 193.521 68.8962H195.521C195.521 67.8796 195.782 66.9424 196.312 66.0656L194.601 65.0308ZM193.521 68.8962V76.4202H195.521V68.8962H193.521ZM194.521 75.4202H189.409V77.4202H194.521V75.4202ZM190.409 76.4202V62.8122H188.409V76.4202H190.409Z" fill="white"/>
<defs>
<filter id="filter0_d" x="0" y="0" width="340" height="131" filterUnits="userSpaceOnUse" color-interpolation-filters="sRGB">
<feFlood flood-opacity="0" result="BackgroundImageFix"/>
<feColorMatrix in="SourceAlpha" type="matrix" values="0 0 0 0 0 0 0 0 0 0 0 0 0 0 0 0 0 0 127 0"/>
<feOffset dy="4"/>
<feGaussianBlur stdDeviation="2"/>
<feColorMatrix type="matrix" values="0 0 0 0 0 0 0 0 0 0 0 0 0 0 0 0 0 0 0.25 0"/>
<feBlend mode="normal" in2="BackgroundImageFix" result="effect1_dropShadow"/>
<feBlend mode="normal" in="SourceGraphic" in2="effect1_dropShadow" result="shape"/>
</filter>
</defs>
</svg>
