<svg width="340" height="131" viewBox="0 0 340 131" fill="none" xmlns="http://www.w3.org/2000/svg">
<g filter="url(#filter0_d)">
<mask id="path-1-outside-1" maskUnits="userSpaceOnUse" x="4" y="0" width="332" height="123" fill="black">
<rect fill="white" x="4" width="332" height="123"/>
<path d="M13 61.5C13 32.505 36.5051 9 65.5 9H274.5C303.495 9 327 32.505 327 61.5C327 90.4949 303.495 114 274.5 114H65.5C36.5051 114 13 90.4949 13 61.5Z"/>
</mask>
<path d="M13 61.5C13 32.505 36.5051 9 65.5 9H274.5C303.495 9 327 32.505 327 61.5C327 90.4949 303.495 114 274.5 114H65.5C36.5051 114 13 90.4949 13 61.5Z" fill="#010F14"/>
<path d="M13 61.5H22H13ZM327 61.5H336H327ZM327 61.5H336H327ZM13 61.5H22H13ZM65.5 18H274.5V0H65.5V18ZM274.5 105H65.5V123H274.5V105ZM65.5 105C41.4756 105 22 85.5244 22 61.5H4C4 95.4655 31.5345 123 65.5 123V105ZM318 61.5C318 85.5244 298.524 105 274.5 105V123C308.466 123 336 95.4655 336 61.5H318ZM274.5 18C298.524 18 318 37.4756 318 61.5H336C336 27.5345 308.466 0 274.5 0V18ZM65.5 0C31.5345 0 4 27.5345 4 61.5H22C22 37.4756 41.4756 18 65.5 18V0Z" fill="#37595E" mask="url(#path-1-outside-1)"/>
</g>
<path d="M141.925 51.2202L133.105 76.4202H127.921L119.101 51.2202H125.149L130.513 69.0402L135.877 51.2202H141.925ZM150.836 76.7802C147.86 76.7802 145.532 75.9522 143.852 74.2962C142.196 72.6402 141.368 70.3482 141.368 67.4202C141.368 64.4922 142.196 62.2002 143.852 60.5442C145.532 58.8882 147.86 58.0602 150.836 58.0602C153.812 58.0602 156.128 58.8882 157.784 60.5442C159.464 62.2002 160.304 64.4922 160.304 67.4202C160.304 70.3482 159.464 72.6402 157.784 74.2962C156.128 75.9522 153.812 76.7802 150.836 76.7802ZM150.836 73.0002C152.204 73.0002 153.272 72.5082 154.04 71.5242C154.808 70.5402 155.192 69.1722 155.192 67.4202C155.192 65.6682 154.808 64.3002 154.04 63.3162C153.272 62.3322 152.204 61.8402 150.836 61.8402C149.468 61.8402 148.4 62.3322 147.632 63.3162C146.864 64.3002 146.48 65.6682 146.48 67.4202C146.48 69.1722 146.864 70.5402 147.632 71.5242C148.4 72.5082 149.468 73.0002 150.836 73.0002ZM168.258 76.7802C166.65 76.7802 165.414 76.3602 164.55 75.5202C163.686 74.6802 163.254 73.4682 163.254 71.8842V49.7082H168.366V71.9922C168.366 72.8562 168.894 73.2882 169.95 73.2882C170.55 73.2882 171.258 73.1202 172.074 72.7842L172.83 75.4482C171.678 76.3362 170.154 76.7802 168.258 76.7802ZM182.179 76.7802C180.235 76.7802 178.723 76.2762 177.643 75.2682C176.587 74.2602 176.059 72.8442 176.059 71.0202V62.2002H172.783V58.4202H176.059V53.8482L181.027 52.4082H181.171V58.4202H186.427V62.2002H181.171V70.2282C181.171 71.1882 181.411 71.8962 181.891 72.3522C182.371 72.7842 183.115 73.0002 184.123 73.0002C185.083 73.0002 185.971 72.8442 186.787 72.5322L187.003 75.9882C185.803 76.5162 184.195 76.7802 182.179 76.7802ZM195.053 76.7802C193.877 76.7802 192.821 76.5282 191.885 76.0242C190.949 75.5202 190.217 74.8362 189.689 73.9722C189.161 73.0842 188.897 72.0882 188.897 70.9842C188.897 69.1362 189.641 67.7202 191.129 66.7362C192.617 65.7522 194.753 65.2602 197.537 65.2602H200.057V64.5402C200.057 63.7242 199.793 63.0882 199.265 62.6322C198.737 62.1762 198.017 61.9482 197.105 61.9482C196.025 61.9482 194.981 62.1282 193.973 62.4882C192.989 62.8482 192.173 63.3402 191.525 63.9642L189.329 61.0482C190.361 60.1362 191.573 59.4162 192.965 58.8882C194.381 58.3362 195.809 58.0602 197.249 58.0602C199.697 58.0602 201.629 58.6362 203.045 59.7882C204.461 60.9162 205.169 62.4642 205.169 64.4322V72.5322C205.169 73.1082 205.217 73.7922 205.313 74.5842C205.409 75.3762 205.517 75.9882 205.637 76.4202H201.065C200.921 76.0842 200.813 75.7842 200.741 75.5202C200.669 75.2562 200.609 74.8842 200.561 74.4042H200.489C199.145 75.9882 197.333 76.7802 195.053 76.7802ZM196.421 73.0002C197.477 73.0002 198.341 72.7362 199.013 72.2082C199.709 71.6562 200.057 70.9602 200.057 70.1202V68.6082H197.393C196.265 68.6082 195.401 68.8122 194.801 69.2202C194.201 69.6282 193.901 70.2162 193.901 70.9842C193.901 71.6322 194.117 72.1362 194.549 72.4962C194.981 72.8322 195.605 73.0002 196.421 73.0002ZM208.955 62.8122C208.955 60.7722 208.919 59.3082 208.847 58.4202H213.707C213.803 59.3562 213.851 60.4122 213.851 61.5882V61.9482H213.995C214.451 60.7722 215.267 59.8362 216.443 59.1402C217.643 58.4202 219.011 58.0602 220.547 58.0602C220.859 58.0602 221.231 58.0962 221.663 58.1682V62.1642C221.615 62.1402 221.375 62.1282 220.943 62.1282C219.719 62.1282 218.579 62.4402 217.523 63.0642C216.467 63.6882 215.627 64.5162 215.003 65.5482C214.379 66.5802 214.067 67.6962 214.067 68.8962V76.4202H208.955V62.8122Z" fill="white"/>
<path d="M141.925 51.2202L142.869 51.5505L143.334 50.2202H141.925V51.2202ZM133.105 76.4202V77.4202H133.814L134.049 76.7505L133.105 76.4202ZM127.921 76.4202L126.977 76.7505L127.211 77.4202H127.921V76.4202ZM119.101 51.2202V50.2202H117.691L118.157 51.5505L119.101 51.2202ZM125.149 51.2202L126.106 50.9319L125.892 50.2202H125.149V51.2202ZM130.513 69.0402L129.555 69.3284L130.513 72.5096L131.47 69.3284L130.513 69.0402ZM135.877 51.2202V50.2202H135.133L134.919 50.9319L135.877 51.2202ZM140.981 50.8898L132.161 76.0898L134.049 76.7505L142.869 51.5505L140.981 50.8898ZM133.105 75.4202H127.921V77.4202H133.105V75.4202ZM128.865 76.0898L120.045 50.8898L118.157 51.5505L126.977 76.7505L128.865 76.0898ZM119.101 52.2202H125.149V50.2202H119.101V52.2202ZM124.191 51.5084L129.555 69.3284L131.47 68.7519L126.106 50.9319L124.191 51.5084ZM131.47 69.3284L136.834 51.5084L134.919 50.9319L129.555 68.7519L131.47 69.3284ZM135.877 52.2202H141.925V50.2202H135.877V52.2202ZM143.852 74.2962L143.145 75.0033L143.15 75.0083L143.852 74.2962ZM143.852 60.5442L143.15 59.832L143.145 59.8371L143.852 60.5442ZM157.784 60.5442L157.077 61.2513L157.082 61.2563L157.784 60.5442ZM157.784 74.2962L157.082 73.584L157.077 73.5891L157.784 74.2962ZM154.04 71.5242L153.252 70.9089L154.04 71.5242ZM147.632 71.5242L148.42 70.9089L147.632 71.5242ZM150.836 75.7802C148.051 75.7802 146.001 75.0104 144.554 73.584L143.15 75.0083C145.063 76.8939 147.67 77.7802 150.836 77.7802V75.7802ZM144.559 73.5891C143.135 72.1649 142.368 70.153 142.368 67.4202H140.368C140.368 70.5433 141.257 73.1154 143.145 75.0033L144.559 73.5891ZM142.368 67.4202C142.368 64.6873 143.135 62.6754 144.559 61.2513L143.145 59.8371C141.257 61.7249 140.368 64.297 140.368 67.4202H142.368ZM144.554 61.2563C146.001 59.8299 148.051 59.0602 150.836 59.0602V57.0602C147.67 57.0602 145.063 57.9464 143.15 59.832L144.554 61.2563ZM150.836 59.0602C153.622 59.0602 155.656 59.8301 157.077 61.2513L158.491 59.8371C156.6 57.9462 154.002 57.0602 150.836 57.0602V59.0602ZM157.082 61.2563C158.528 62.6812 159.304 64.6914 159.304 67.4202H161.304C161.304 64.293 160.401 61.7191 158.486 59.832L157.082 61.2563ZM159.304 67.4202C159.304 70.149 158.528 72.1591 157.082 73.584L158.486 75.0083C160.401 73.1212 161.304 70.5474 161.304 67.4202H159.304ZM157.077 73.5891C155.656 75.0102 153.622 75.7802 150.836 75.7802V77.7802C154.002 77.7802 156.6 76.8941 158.491 75.0033L157.077 73.5891ZM150.836 74.0002C152.478 74.0002 153.851 73.3918 154.828 72.1394L153.252 70.9089C152.693 71.6246 151.93 72.0002 150.836 72.0002V74.0002ZM154.828 72.1394C155.779 70.9209 156.192 69.307 156.192 67.4202H154.192C154.192 69.0374 153.837 70.1594 153.252 70.9089L154.828 72.1394ZM156.192 67.4202C156.192 65.5334 155.779 63.9194 154.828 62.7009L153.252 63.9314C153.837 64.6809 154.192 65.803 154.192 67.4202H156.192ZM154.828 62.7009C153.851 61.4486 152.478 60.8402 150.836 60.8402V62.8402C151.93 62.8402 152.693 63.2158 153.252 63.9314L154.828 62.7009ZM150.836 60.8402C149.194 60.8402 147.821 61.4486 146.844 62.7009L148.42 63.9314C148.979 63.2158 149.742 62.8402 150.836 62.8402V60.8402ZM146.844 62.7009C145.893 63.9194 145.48 65.5334 145.48 67.4202H147.48C147.48 65.803 147.835 64.6809 148.42 63.9314L146.844 62.7009ZM145.48 67.4202C145.48 69.307 145.893 70.9209 146.844 72.1394L148.42 70.9089C147.835 70.1594 147.48 69.0374 147.48 67.4202H145.48ZM146.844 72.1394C147.821 73.3918 149.194 74.0002 150.836 74.0002V72.0002C149.742 72.0002 148.979 71.6246 148.42 70.9089L146.844 72.1394ZM164.55 75.5202L165.247 74.8032L164.55 75.5202ZM163.254 49.7082V48.7082H162.254V49.7082H163.254ZM168.366 49.7082H169.366V48.7082H168.366V49.7082ZM172.074 72.7842L173.036 72.5112L172.73 71.4326L171.693 71.8595L172.074 72.7842ZM172.83 75.4482L173.44 76.2402L173.977 75.8267L173.792 75.1752L172.83 75.4482ZM168.258 75.7802C166.821 75.7802 165.869 75.4076 165.247 74.8032L163.853 76.2372C164.959 77.3127 166.479 77.7802 168.258 77.7802V75.7802ZM165.247 74.8032C164.632 74.2054 164.254 73.2867 164.254 71.8842H162.254C162.254 73.6497 162.74 75.155 163.853 76.2372L165.247 74.8032ZM164.254 71.8842V49.7082H162.254V71.8842H164.254ZM163.254 50.7082H168.366V48.7082H163.254V50.7082ZM167.366 49.7082V71.9922H169.366V49.7082H167.366ZM167.366 71.9922C167.366 72.6372 167.573 73.2833 168.129 73.7381C168.646 74.1616 169.311 74.2882 169.95 74.2882V72.2882C169.533 72.2882 169.406 72.1988 169.395 72.1902C169.393 72.1885 169.394 72.1889 169.395 72.1906C169.396 72.1921 169.394 72.1903 169.391 72.1819C169.384 72.1642 169.366 72.1082 169.366 71.9922H167.366ZM169.95 74.2882C170.727 74.2882 171.57 74.0732 172.455 73.7088L171.693 71.8595C170.946 72.1671 170.373 72.2882 169.95 72.2882V74.2882ZM171.112 73.0572L171.868 75.7212L173.792 75.1752L173.036 72.5112L171.112 73.0572ZM172.219 74.6562C171.289 75.3733 170 75.7802 168.258 75.7802V77.7802C170.307 77.7802 172.067 77.2991 173.44 76.2402L172.219 74.6562ZM177.643 75.2682L176.953 75.9916L176.961 75.9992L177.643 75.2682ZM176.059 62.2002H177.059V61.2002H176.059V62.2002ZM172.783 62.2002H171.783V63.2002H172.783V62.2002ZM172.783 58.4202V57.4202H171.783V58.4202H172.783ZM176.059 58.4202V59.4202H177.059V58.4202H176.059ZM176.059 53.8482L175.781 52.8877L175.059 53.0969V53.8482H176.059ZM181.027 52.4082V51.4082H180.885L180.749 51.4477L181.027 52.4082ZM181.171 52.4082H182.171V51.4082H181.171V52.4082ZM181.171 58.4202H180.171V59.4202H181.171V58.4202ZM186.427 58.4202H187.427V57.4202H186.427V58.4202ZM186.427 62.2002V63.2002H187.427V62.2002H186.427ZM181.171 62.2002V61.2002H180.171V62.2002H181.171ZM181.891 72.3522L181.203 73.0772L181.212 73.0864L181.222 73.0955L181.891 72.3522ZM186.787 72.5322L187.785 72.4698L187.701 71.1124L186.43 71.5981L186.787 72.5322ZM187.003 75.9882L187.406 76.9035L188.045 76.6224L188.001 75.9258L187.003 75.9882ZM182.179 75.7802C180.407 75.7802 179.168 75.3234 178.326 74.5371L176.961 75.9992C178.279 77.229 180.064 77.7802 182.179 77.7802V75.7802ZM178.334 74.5448C177.523 73.7703 177.059 72.6434 177.059 71.0202H175.059C175.059 73.0449 175.652 74.75 176.953 75.9915L178.334 74.5448ZM177.059 71.0202V62.2002H175.059V71.0202H177.059ZM176.059 61.2002H172.783V63.2002H176.059V61.2002ZM173.783 62.2002V58.4202H171.783V62.2002H173.783ZM172.783 59.4202H176.059V57.4202H172.783V59.4202ZM177.059 58.4202V53.8482H175.059V58.4202H177.059ZM176.338 54.8086L181.306 53.3686L180.749 51.4477L175.781 52.8877L176.338 54.8086ZM181.027 53.4082H181.171V51.4082H181.027V53.4082ZM180.171 52.4082V58.4202H182.171V52.4082H180.171ZM181.171 59.4202H186.427V57.4202H181.171V59.4202ZM185.427 58.4202V62.2002H187.427V58.4202H185.427ZM186.427 61.2002H181.171V63.2002H186.427V61.2002ZM180.171 62.2002V70.2282H182.171V62.2002H180.171ZM180.171 70.2282C180.171 71.3378 180.449 72.361 181.203 73.0772L182.58 71.6272C182.374 71.4313 182.171 71.0386 182.171 70.2282H180.171ZM181.222 73.0955C181.965 73.764 183.001 74.0002 184.123 74.0002V72.0002C183.23 72.0002 182.778 71.8043 182.56 71.6089L181.222 73.0955ZM184.123 74.0002C185.193 74.0002 186.204 73.8259 187.145 73.4662L186.43 71.5981C185.739 71.8624 184.973 72.0002 184.123 72.0002V74.0002ZM185.789 72.5945L186.005 76.0505L188.001 75.9258L187.785 72.4698L185.789 72.5945ZM186.601 75.0729C185.577 75.5232 184.124 75.7802 182.179 75.7802V77.7802C184.267 77.7802 186.03 77.5092 187.406 76.9035L186.601 75.0729ZM191.885 76.0242L192.359 75.1437V75.1437L191.885 76.0242ZM189.689 73.9722L188.829 74.4833L188.836 74.4936L189.689 73.9722ZM191.129 66.7362L190.577 65.9021H190.577L191.129 66.7362ZM200.057 65.2602V66.2602H201.057V65.2602H200.057ZM199.265 62.6322L199.918 61.8753L199.265 62.6322ZM193.973 62.4882L193.636 61.5464L193.629 61.549L193.973 62.4882ZM191.525 63.9642L190.726 64.5657L191.405 65.4676L192.218 64.6845L191.525 63.9642ZM189.329 61.0482L188.667 60.2988L187.974 60.9111L188.53 61.6497L189.329 61.0482ZM192.965 58.8882L193.319 59.8232L193.328 59.8199L192.965 58.8882ZM203.045 59.7882L202.414 60.5639L202.422 60.5703L203.045 59.7882ZM205.313 74.5842L204.32 74.7045V74.7045L205.313 74.5842ZM205.637 76.4202V77.4202H206.952L206.6 76.1525L205.637 76.4202ZM201.065 76.4202L200.146 76.8141L200.405 77.4202H201.065V76.4202ZM200.741 75.5202L199.776 75.7833V75.7833L200.741 75.5202ZM200.561 74.4042L201.556 74.3047L201.466 73.4042H200.561V74.4042ZM200.489 74.4042V73.4042H200.026L199.726 73.7572L200.489 74.4042ZM199.013 72.2082L199.631 72.9945L199.634 72.9917L199.013 72.2082ZM200.057 68.6082H201.057V67.6082H200.057V68.6082ZM194.801 69.2202L195.363 70.0471L194.801 69.2202ZM194.549 72.4962L193.909 73.2644L193.922 73.2752L193.935 73.2855L194.549 72.4962ZM195.053 75.7802C194.024 75.7802 193.134 75.5612 192.359 75.1437L191.411 76.9046C192.507 77.4952 193.729 77.7802 195.053 77.7802V75.7802ZM192.359 75.1437C191.571 74.7193 190.973 74.1559 190.542 73.4507L188.836 74.4936C189.461 75.5164 190.327 76.321 191.411 76.9046L192.359 75.1437ZM190.548 73.4611C190.119 72.7384 189.897 71.9211 189.897 70.9842H187.897C187.897 72.2552 188.203 73.43 188.829 74.4832L190.548 73.4611ZM189.897 70.9842C189.897 69.4574 190.484 68.3613 191.68 67.5703L190.577 65.9021C188.797 67.0791 187.897 68.815 187.897 70.9842H189.897ZM191.68 67.5703C192.937 66.7394 194.847 66.2602 197.537 66.2602V64.2602C194.658 64.2602 192.297 64.7649 190.577 65.9021L191.68 67.5703ZM197.537 66.2602H200.057V64.2602H197.537V66.2602ZM201.057 65.2602V64.5402H199.057V65.2602H201.057ZM201.057 64.5402C201.057 63.488 200.705 62.5542 199.918 61.8753L198.611 63.389C198.881 63.6221 199.057 63.9603 199.057 64.5402H201.057ZM199.918 61.8753C199.159 61.2195 198.182 60.9482 197.105 60.9482V62.9482C197.852 62.9482 198.315 63.1328 198.611 63.389L199.918 61.8753ZM197.105 60.9482C195.911 60.9482 194.753 61.1475 193.636 61.5464L194.309 63.4299C195.208 63.1088 196.138 62.9482 197.105 62.9482V60.9482ZM193.629 61.549C192.536 61.949 191.595 62.5088 190.831 63.2438L192.218 64.6845C192.751 64.1716 193.442 63.7473 194.316 63.4273L193.629 61.549ZM192.324 63.3626L190.128 60.4466L188.53 61.6497L190.726 64.5657L192.324 63.3626ZM189.991 61.7975C190.925 60.9717 192.031 60.3118 193.319 59.8232L192.61 57.9532C191.114 58.5205 189.796 59.3006 188.667 60.2988L189.991 61.7975ZM193.328 59.8199C194.635 59.3105 195.94 59.0602 197.249 59.0602V57.0602C195.678 57.0602 194.127 57.3619 192.602 57.9565L193.328 59.8199ZM197.249 59.0602C199.545 59.0602 201.229 59.5998 202.414 60.5639L203.676 59.0125C202.029 57.6726 199.848 57.0602 197.249 57.0602V59.0602ZM202.422 60.5703C203.577 61.4904 204.169 62.7383 204.169 64.4322H206.169C206.169 62.19 205.345 60.3419 203.668 59.006L202.422 60.5703ZM204.169 64.4322V72.5322H206.169V64.4322H204.169ZM204.169 72.5322C204.169 73.1604 204.221 73.8865 204.32 74.7045L206.306 74.4638C206.213 73.6978 206.169 73.056 206.169 72.5322H204.169ZM204.32 74.7045C204.418 75.5143 204.533 76.1841 204.673 76.6878L206.6 76.1525C206.5 75.7922 206.399 75.238 206.306 74.4638L204.32 74.7045ZM205.637 75.4202H201.065V77.4202H205.637V75.4202ZM201.984 76.0262C201.853 75.7196 201.762 75.4645 201.706 75.257L199.776 75.7833C199.863 76.1038 199.989 76.4487 200.146 76.8141L201.984 76.0262ZM201.706 75.257C201.655 75.0723 201.602 74.7643 201.556 74.3047L199.566 74.5037C199.616 75.004 199.682 75.44 199.776 75.7833L201.706 75.257ZM200.561 73.4042H200.489V75.4042H200.561V73.4042ZM199.726 73.7572C198.592 75.0937 197.071 75.7802 195.053 75.7802V77.7802C197.594 77.7802 199.697 76.8826 201.251 75.0511L199.726 73.7572ZM196.421 74.0002C197.647 74.0002 198.744 73.691 199.631 72.9945L198.395 71.4218C197.937 71.7813 197.307 72.0002 196.421 72.0002V74.0002ZM199.634 72.9917C200.553 72.2626 201.057 71.2852 201.057 70.1202H199.057C199.057 70.6352 198.864 71.0498 198.391 71.4247L199.634 72.9917ZM201.057 70.1202V68.6082H199.057V70.1202H201.057ZM200.057 67.6082H197.393V69.6082H200.057V67.6082ZM197.393 67.6082C196.167 67.6082 195.073 67.8258 194.238 68.3932L195.363 70.0471C195.729 69.7985 196.362 69.6082 197.393 69.6082V67.6082ZM194.238 68.3932C193.346 69 192.901 69.9081 192.901 70.9842H194.901C194.901 70.5243 195.055 70.2563 195.363 70.0471L194.238 68.3932ZM192.901 70.9842C192.901 71.8784 193.212 72.6843 193.909 73.2644L195.189 71.7279C195.021 71.5881 194.901 71.3859 194.901 70.9842H192.901ZM193.935 73.2855C194.61 73.8107 195.487 74.0002 196.421 74.0002V72.0002C195.723 72.0002 195.352 71.8536 195.163 71.7068L193.935 73.2855ZM208.847 58.4202V57.4202H207.763L207.851 58.501L208.847 58.4202ZM213.707 58.4202L214.702 58.3181L214.61 57.4202H213.707V58.4202ZM213.851 61.9482H212.851V62.9482H213.851V61.9482ZM213.995 61.9482V62.9482H214.68L214.928 62.3097L213.995 61.9482ZM216.443 59.1402L216.953 60.0008L216.958 59.9977L216.443 59.1402ZM221.663 58.1682H222.663V57.321L221.828 57.1818L221.663 58.1682ZM221.663 62.1642L221.216 63.0586L222.663 63.7822V62.1642H221.663ZM214.067 76.4202V77.4202H215.067V76.4202H214.067ZM208.955 76.4202H207.955V77.4202H208.955V76.4202ZM209.955 62.8122C209.955 60.7705 209.92 59.2712 209.844 58.3393L207.851 58.501C207.919 59.3451 207.955 60.7738 207.955 62.8122H209.955ZM208.847 59.4202H213.707V57.4202H208.847V59.4202ZM212.712 58.5222C212.804 59.4172 212.851 60.4382 212.851 61.5882H214.851C214.851 60.3861 214.802 59.2952 214.702 58.3181L212.712 58.5222ZM212.851 61.5882V61.9482H214.851V61.5882H212.851ZM213.851 62.9482H213.995V60.9482H213.851V62.9482ZM214.928 62.3097C215.296 61.3606 215.952 60.5927 216.953 60.0007L215.934 58.2796C214.582 59.0796 213.607 60.1837 213.063 61.5866L214.928 62.3097ZM216.958 59.9977C217.987 59.3799 219.174 59.0602 220.547 59.0602V57.0602C218.848 57.0602 217.299 57.4605 215.929 58.2827L216.958 59.9977ZM220.547 59.0602C220.787 59.0602 221.101 59.0883 221.499 59.1546L221.828 57.1818C221.361 57.104 220.931 57.0602 220.547 57.0602V59.0602ZM220.663 58.1682V62.1642H222.663V58.1682H220.663ZM222.11 61.2697C221.924 61.1764 221.734 61.1585 221.715 61.1561C221.644 61.1472 221.568 61.142 221.497 61.1384C221.352 61.1312 221.165 61.1282 220.943 61.1282V63.1282C221.153 63.1282 221.302 63.1312 221.397 63.1359C221.42 63.1371 221.438 63.1382 221.45 63.1392C221.464 63.1402 221.469 63.1409 221.467 63.1407C221.466 63.1406 221.462 63.1401 221.456 63.139C221.449 63.1379 221.438 63.136 221.423 63.1326C221.408 63.1295 221.384 63.1237 221.354 63.1143C221.326 63.1056 221.276 63.0885 221.216 63.0586L222.11 61.2697ZM220.943 61.1282C219.54 61.1282 218.224 61.4884 217.015 62.2032L218.032 63.9251C218.934 63.3919 219.899 63.1282 220.943 63.1282V61.1282ZM217.015 62.2032C215.819 62.9098 214.859 63.8548 214.148 65.0307L215.859 66.0656C216.396 65.1775 217.116 64.4665 218.032 63.9251L217.015 62.2032ZM214.148 65.0307C213.43 66.218 213.067 67.5128 213.067 68.8962H215.067C215.067 67.8795 215.329 66.9423 215.859 66.0656L214.148 65.0307ZM213.067 68.8962V76.4202H215.067V68.8962H213.067ZM214.067 75.4202H208.955V77.4202H214.067V75.4202ZM209.955 76.4202V62.8122H207.955V76.4202H209.955Z" fill="white"/>
<defs>
<filter id="filter0_d" x="0" y="0" width="340" height="131" filterUnits="userSpaceOnUse" color-interpolation-filters="sRGB">
<feFlood flood-opacity="0" result="BackgroundImageFix"/>
<feColorMatrix in="SourceAlpha" type="matrix" values="0 0 0 0 0 0 0 0 0 0 0 0 0 0 0 0 0 0 127 0"/>
<feOffset dy="4"/>
<feGaussianBlur stdDeviation="2"/>
<feColorMatrix type="matrix" values="0 0 0 0 0 0 0 0 0 0 0 0 0 0 0 0 0 0 0.25 0"/>
<feBlend mode="normal" in2="BackgroundImageFix" result="effect1_dropShadow"/>
<feBlend mode="normal" in="SourceGraphic" in2="effect1_dropShadow" result="shape"/>
</filter>
</defs>
</svg>
