<svg width="1919" height="1080" viewBox="0 0 1919 1080" fill="none" xmlns="http://www.w3.org/2000/svg">
<path d="M-1 328C161.095 328 161.095 328 161.095 600.774C161.095 791.405 161.095 887.279 368.379 887.279C529 887.279 529 887.279 529 1080" stroke="#071E21" stroke-width="18"/>
<path d="M1918.93 751.998C1756.84 752.414 1756.84 752.414 1756.14 479.641C1755.65 289.01 1755.4 193.137 1548.12 193.67C1387.5 194.083 1387.5 194.083 1387 1.36294" stroke="#071E21" stroke-width="18"/>
<path d="M-1 437C122.865 437 122.865 437 122.865 670.237C122.865 833.236 122.865 915.214 281.261 915.214C404 915.214 404 915.214 404 1080" stroke="#071E21" stroke-width="18"/>
<path d="M1918.65 642.999C1794.79 643.317 1794.79 643.317 1794.19 410.081C1793.77 247.082 1793.56 165.105 1635.16 165.512C1512.42 165.828 1512.42 165.828 1512 1.04211" stroke="#071E21" stroke-width="18"/>
</svg>
